<svg xmlns="http://www.w3.org/2000/svg" viewBox="0 0 136 136">
    <defs>
        <linearGradient id="logotype-gradient">
            <stop offset="0%" stop-color="#0aa2f4" />
            <stop offset="100%" stop-color="#1976d7" />
        </linearGradient>
    </defs>
    <circle cx="68" cy="68" r="67.5" fill="url(#logotype-gradient)" />
    <path class="cut" d="M68.4.5C40.3 10 20 36.6 20 68s20.3 58 48.4 67.5c28.2-9.5 48.4-36.1 48.4-67.5S96.6 10 68.4.5zm30.4 92.9c-.1.2-.4.4-.8.5-.4.1-.9.2-1.6.3-.6.1-1.5.1-2.5.1s-1.8 0-2.4-.1c-.6-.1-1.2-.2-1.5-.3-.4-.1-.6-.3-.8-.5-.2-.2-.2-.5-.2-.7V49.9h-.1L73.6 92.6c-.1.4-.3.6-.5.9-.2.2-.6.4-1 .5-.4.1-1 .2-1.6.3-.6 0-1.4.1-2.4.1-.9 0-1.7 0-2.4-.1-.6-.1-1.2-.2-1.6-.3-.4-.1-.8-.3-1-.5-.2-.2-.4-.5-.5-.8L48 49.9h-.1v42.7c0 .3-.1.5-.2.7-.1.2-.4.4-.8.5-.4.1-.9.2-1.6.3-.6.1-1.5.1-2.5.1s-1.8 0-2.4-.1c-.6-.1-1.2-.2-1.6-.3-.4-.1-.7-.3-.8-.5-.1-.2-.2-.5-.2-.7V45.9c0-1.4.4-2.4 1.1-3.2.7-.7 1.7-1.1 2.9-1.1h7c1.2 0 2.3.1 3.2.3.9.2 1.7.5 2.3 1 .6.5 1.2 1.1 1.6 1.9.4.8.8 1.7 1.1 2.9L68.4 79h.2l11.8-31.2c.4-1.1.7-2.1 1.2-2.9.4-.8.9-1.4 1.5-1.9s1.2-.8 2-1c.8-.2 1.6-.3 2.6-.3h7.2c.7 0 1.4.1 1.9.3.5.2 1 .5 1.3.8.3.4.6.8.8 1.3.2.5.3 1.1.3 1.8v46.8c-.2.2-.3.5-.4.7z"/>
</svg>